<mxfile host="app.diagrams.net" modified="2022-12-19T21:15:19.396Z" agent="5.0 (Macintosh; Intel Mac OS X 10_15_7) AppleWebKit/537.36 (KHTML, like Gecko) Chrome/108.0.0.0 Safari/537.36" etag="ANTmzxz0rIUEJZqKTCUJ" version="20.7.4" type="github">
  <diagram id="kgpKYQtTHZ0yAKxKKP6v" name="Page-1">
    <mxGraphModel dx="2097" dy="824" grid="1" gridSize="10" guides="1" tooltips="1" connect="1" arrows="1" fold="1" page="1" pageScale="1" pageWidth="850" pageHeight="1100" math="0" shadow="0">
      <root>
        <mxCell id="0" />
        <mxCell id="1" parent="0" />
        <mxCell id="3nuBFxr9cyL0pnOWT2aG-1" value="Coordinator" style="shape=umlLifeline;perimeter=lifelinePerimeter;container=1;collapsible=0;recursiveResize=0;rounded=0;shadow=0;strokeWidth=1;" parent="1" vertex="1">
          <mxGeometry x="120" y="80" width="100" height="560" as="geometry" />
        </mxCell>
        <mxCell id="3nuBFxr9cyL0pnOWT2aG-3" value="FileList from Blob Storage" style="verticalAlign=bottom;startArrow=oval;endArrow=block;startSize=8;shadow=0;strokeWidth=1;" parent="3nuBFxr9cyL0pnOWT2aG-1" edge="1">
          <mxGeometry relative="1" as="geometry">
            <mxPoint x="-60" y="70" as="sourcePoint" />
            <mxPoint x="45" y="70" as="targetPoint" />
          </mxGeometry>
        </mxCell>
        <mxCell id="3nuBFxr9cyL0pnOWT2aG-5" value="Worker" style="shape=umlLifeline;perimeter=lifelinePerimeter;container=1;collapsible=0;recursiveResize=0;rounded=0;shadow=0;strokeWidth=1;" parent="1" vertex="1">
          <mxGeometry x="300" y="80" width="180" height="520" as="geometry" />
        </mxCell>
        <mxCell id="3nuBFxr9cyL0pnOWT2aG-6" value="" style="points=[];perimeter=orthogonalPerimeter;rounded=0;shadow=0;strokeWidth=1;" parent="3nuBFxr9cyL0pnOWT2aG-5" vertex="1">
          <mxGeometry x="80" y="80" width="10" height="160" as="geometry" />
        </mxCell>
        <mxCell id="X_brF7GK9pJHSP2JpN9n-6" value="wait for new task" style="text;html=1;align=center;verticalAlign=middle;resizable=0;points=[];autosize=1;strokeColor=none;fillColor=none;" vertex="1" parent="3nuBFxr9cyL0pnOWT2aG-5">
          <mxGeometry x="82.5" y="250" width="110" height="30" as="geometry" />
        </mxCell>
        <mxCell id="X_brF7GK9pJHSP2JpN9n-18" value="Subpartition&amp;nbsp;&lt;br&gt;and compute&lt;br&gt;&amp;nbsp;Partial &lt;br&gt;Aggregate" style="text;html=1;align=center;verticalAlign=middle;resizable=0;points=[];autosize=1;strokeColor=none;fillColor=none;" vertex="1" parent="3nuBFxr9cyL0pnOWT2aG-5">
          <mxGeometry x="80" y="85" width="90" height="70" as="geometry" />
        </mxCell>
        <mxCell id="X_brF7GK9pJHSP2JpN9n-27" value="" style="points=[];perimeter=orthogonalPerimeter;rounded=0;shadow=0;strokeWidth=1;" vertex="1" parent="3nuBFxr9cyL0pnOWT2aG-5">
          <mxGeometry x="80" y="310" width="10" height="160" as="geometry" />
        </mxCell>
        <mxCell id="X_brF7GK9pJHSP2JpN9n-33" value="" style="endArrow=classic;html=1;rounded=0;exitX=1.083;exitY=0.135;exitDx=0;exitDy=0;exitPerimeter=0;" edge="1" parent="3nuBFxr9cyL0pnOWT2aG-5">
          <mxGeometry width="50" height="50" relative="1" as="geometry">
            <mxPoint x="89.99999999999994" y="349.9999999999999" as="sourcePoint" />
            <mxPoint x="90" y="350" as="targetPoint" />
            <Array as="points">
              <mxPoint x="300" y="350" />
            </Array>
          </mxGeometry>
        </mxCell>
        <mxCell id="X_brF7GK9pJHSP2JpN9n-34" value="merge result" style="text;html=1;align=center;verticalAlign=middle;resizable=0;points=[];autosize=1;strokeColor=none;fillColor=none;" vertex="1" parent="3nuBFxr9cyL0pnOWT2aG-5">
          <mxGeometry x="90" y="390" width="90" height="30" as="geometry" />
        </mxCell>
        <mxCell id="3nuBFxr9cyL0pnOWT2aG-8" value="assign File" style="verticalAlign=bottom;endArrow=block;entryX=0;entryY=0;shadow=0;strokeWidth=1;" parent="1" target="3nuBFxr9cyL0pnOWT2aG-6" edge="1">
          <mxGeometry relative="1" as="geometry">
            <mxPoint x="175" y="160.00000000000023" as="sourcePoint" />
          </mxGeometry>
        </mxCell>
        <mxCell id="3nuBFxr9cyL0pnOWT2aG-9" value="done" style="verticalAlign=bottom;endArrow=block;shadow=0;strokeWidth=1;" parent="1" target="3nuBFxr9cyL0pnOWT2aG-1" edge="1">
          <mxGeometry relative="1" as="geometry">
            <mxPoint x="370" y="319" as="sourcePoint" />
            <mxPoint x="175" y="200" as="targetPoint" />
            <Array as="points" />
          </mxGeometry>
        </mxCell>
        <mxCell id="X_brF7GK9pJHSP2JpN9n-5" value="... Workers" style="text;html=1;align=center;verticalAlign=middle;resizable=0;points=[];autosize=1;strokeColor=none;fillColor=none;" vertex="1" parent="1">
          <mxGeometry x="480" y="90" width="80" height="30" as="geometry" />
        </mxCell>
        <mxCell id="X_brF7GK9pJHSP2JpN9n-20" style="edgeStyle=orthogonalEdgeStyle;rounded=0;orthogonalLoop=1;jettySize=auto;html=1;" edge="1" parent="1" source="3nuBFxr9cyL0pnOWT2aG-6">
          <mxGeometry relative="1" as="geometry">
            <mxPoint x="540" y="240" as="targetPoint" />
          </mxGeometry>
        </mxCell>
        <mxCell id="X_brF7GK9pJHSP2JpN9n-22" value="Save to Blob&lt;br&gt;Storage" style="text;html=1;align=center;verticalAlign=middle;resizable=0;points=[];autosize=1;strokeColor=none;fillColor=none;" vertex="1" parent="1">
          <mxGeometry x="540" y="225" width="90" height="40" as="geometry" />
        </mxCell>
        <mxCell id="X_brF7GK9pJHSP2JpN9n-25" value="once all files got preprocessed" style="text;html=1;align=center;verticalAlign=middle;resizable=0;points=[];autosize=1;strokeColor=none;fillColor=none;" vertex="1" parent="1">
          <mxGeometry x="-10" y="350" width="190" height="30" as="geometry" />
        </mxCell>
        <mxCell id="X_brF7GK9pJHSP2JpN9n-28" value="" style="endArrow=classic;html=1;rounded=0;exitX=0.491;exitY=0.671;exitDx=0;exitDy=0;exitPerimeter=0;" edge="1" parent="1" source="3nuBFxr9cyL0pnOWT2aG-1" target="3nuBFxr9cyL0pnOWT2aG-5">
          <mxGeometry width="50" height="50" relative="1" as="geometry">
            <mxPoint x="380" y="380" as="sourcePoint" />
            <mxPoint x="430" y="330" as="targetPoint" />
          </mxGeometry>
        </mxCell>
        <mxCell id="X_brF7GK9pJHSP2JpN9n-29" value="assign subpartition" style="text;html=1;align=center;verticalAlign=middle;resizable=0;points=[];autosize=1;strokeColor=none;fillColor=none;" vertex="1" parent="1">
          <mxGeometry x="220" y="430" width="120" height="30" as="geometry" />
        </mxCell>
        <mxCell id="X_brF7GK9pJHSP2JpN9n-30" value="" style="endArrow=classic;html=1;rounded=0;exitX=1.083;exitY=0.135;exitDx=0;exitDy=0;exitPerimeter=0;entryX=0.907;entryY=1.055;entryDx=0;entryDy=0;entryPerimeter=0;" edge="1" parent="1" source="X_brF7GK9pJHSP2JpN9n-27" target="X_brF7GK9pJHSP2JpN9n-31">
          <mxGeometry width="50" height="50" relative="1" as="geometry">
            <mxPoint x="380" y="380" as="sourcePoint" />
            <mxPoint x="630" y="410" as="targetPoint" />
          </mxGeometry>
        </mxCell>
        <mxCell id="X_brF7GK9pJHSP2JpN9n-31" value="get all partial aggregates for subpartition" style="text;html=1;align=center;verticalAlign=middle;resizable=0;points=[];autosize=1;strokeColor=none;fillColor=none;" vertex="1" parent="1">
          <mxGeometry x="380" y="380" width="240" height="30" as="geometry" />
        </mxCell>
        <mxCell id="X_brF7GK9pJHSP2JpN9n-35" value="" style="endArrow=classic;html=1;rounded=0;exitX=-0.222;exitY=0.902;exitDx=0;exitDy=0;exitPerimeter=0;" edge="1" parent="1" source="X_brF7GK9pJHSP2JpN9n-27" target="3nuBFxr9cyL0pnOWT2aG-1">
          <mxGeometry width="50" height="50" relative="1" as="geometry">
            <mxPoint x="380" y="430" as="sourcePoint" />
            <mxPoint x="430" y="380" as="targetPoint" />
          </mxGeometry>
        </mxCell>
        <mxCell id="X_brF7GK9pJHSP2JpN9n-36" value="unify results" style="text;html=1;align=center;verticalAlign=middle;resizable=0;points=[];autosize=1;strokeColor=none;fillColor=none;" vertex="1" parent="1">
          <mxGeometry x="65" y="525" width="90" height="30" as="geometry" />
        </mxCell>
        <mxCell id="X_brF7GK9pJHSP2JpN9n-37" value="sort" style="text;html=1;align=center;verticalAlign=middle;resizable=0;points=[];autosize=1;strokeColor=none;fillColor=none;" vertex="1" parent="1">
          <mxGeometry x="80" y="560" width="40" height="30" as="geometry" />
        </mxCell>
        <mxCell id="X_brF7GK9pJHSP2JpN9n-38" value="return top 25" style="text;html=1;align=center;verticalAlign=middle;resizable=0;points=[];autosize=1;strokeColor=none;fillColor=none;" vertex="1" parent="1">
          <mxGeometry x="55" y="600" width="90" height="30" as="geometry" />
        </mxCell>
        <mxCell id="X_brF7GK9pJHSP2JpN9n-39" value="wait for new task" style="text;html=1;align=center;verticalAlign=middle;resizable=0;points=[];autosize=1;strokeColor=none;fillColor=none;" vertex="1" parent="1">
          <mxGeometry x="392.5" y="560" width="110" height="30" as="geometry" />
        </mxCell>
        <mxCell id="X_brF7GK9pJHSP2JpN9n-40" value="&lt;span style=&quot;font-size: 11px; background-color: rgb(255, 255, 255);&quot;&gt;done&lt;/span&gt;" style="text;html=1;align=center;verticalAlign=middle;resizable=0;points=[];autosize=1;strokeColor=none;fillColor=none;" vertex="1" parent="1">
          <mxGeometry x="245" y="510" width="50" height="30" as="geometry" />
        </mxCell>
      </root>
    </mxGraphModel>
  </diagram>
</mxfile>
